<?xml version="1.0" encoding="UTF-8"?>
<svg id="Layer_1" data-name="Layer 1" xmlns="http://www.w3.org/2000/svg" viewBox="0 0 960 960">
  <defs>
    <style>
      .cls-1 {
        fill: #58c4dc;
        stroke-width: 0px;
      }
    </style>
  </defs>
  <circle class="cls-1" cx="479.72" cy="480.44" r="85.96"/>
  <path class="cls-1" d="M931.04,480.35c0-67.92-62.96-127.26-162.91-166.3,1.35-8.8,2.48-17.6,3.39-26.17,9.93-97.48-13.76-167.88-66.11-198.34-52.58-30.24-125.23-15.34-204.66,41.97-6.99,4.96-13.99,10.38-20.98,16.02-6.99-5.64-13.99-11.06-20.98-16.02-79.43-57.31-152.31-72.2-204.66-41.97-52.58,30.46-76.04,100.86-66.11,198.34.9,8.57,2.03,17.15,3.38,25.95-99.96,39.04-162.91,98.61-162.91,166.52s62.95,127.49,162.91,166.75c-16.25,106.05,4.06,190.22,62.73,224.29,17.83,10.15,37.68,15.12,59.12,15.12,49.87,0,107.86-26.17,166.52-72.88,58.44,46.93,116.66,72.88,166.3,72.88,21.66,0,41.52-4.96,59.34-15.12,45.8-26.63,68.14-83.49,68.14-157.72,0-20.98-1.81-43.32-5.42-66.79,99.96-39.04,162.91-98.61,162.91-166.52ZM525.79,166.26c44.68-32.27,86.2-48.96,119.82-48.96,14.44,0,27.3,3.16,38.36,9.48,36.33,21.21,52.8,78.3,44.68,156.6-.45,5.42-1.13,10.83-2.03,16.25-38.59-11.96-81.23-20.98-127.26-26.85-27.53-36.33-56.64-68.82-86.65-96.57,4.51-3.39,8.8-6.77,13.09-9.93ZM264.95,534.73c8.8,17.83,18.5,35.65,28.66,53.25,10.38,17.83,20.98,34.97,31.81,51.45-30.91-5.42-59.34-12.41-85.29-20.53,5.64-26.63,13.99-54.83,24.82-84.16ZM240.35,341.81c25.95-8.35,54.38-15.12,85.29-20.53-11.06,16.7-21.66,33.85-32.04,51.67-10.38,17.83-19.86,35.65-28.43,53.25-10.6-28.88-18.95-57.09-24.82-84.39ZM286.83,480.35c12.64-27.98,27.08-56.64,44-85.97,16.47-28.66,34.07-55.51,52.58-81,30.46-3.39,62.5-4.96,96.35-4.96s65.89,1.58,96.35,4.96c18.5,25.5,36.1,52.35,52.57,81,16.92,29.33,31.36,57.99,44,85.97-12.86,28.66-27.53,57.31-44,85.97-16.92,29.33-34.3,56.18-52.35,81.01-30.46,3.16-62.73,4.96-96.57,4.96s-66.11-1.81-96.58-4.96c-18.05-24.82-35.43-51.67-52.35-81.01-16.47-28.66-31.14-57.31-44-85.97ZM633.87,321.27c30.69,5.42,59.12,12.41,85.07,20.53-5.87,27.3-14.22,55.51-24.59,84.39-8.57-17.6-18.28-35.43-28.43-53.25-10.38-17.83-20.98-34.97-32.04-51.67ZM665.91,587.98c10.15-17.6,19.86-35.43,28.66-53.25,10.83,29.33,18.95,57.54,24.82,84.16-25.95,8.12-54.38,15.12-85.29,20.53,10.83-16.47,21.44-33.62,31.82-51.45ZM479.76,204.17c19.18,17.6,38.13,37.23,56.64,58.67,1.35,1.58,2.71,3.16,3.84,4.74-19.63-1.35-39.94-2.03-60.47-2.03s-40.84.68-60.47,2.03c19.63-23.47,39.71-44.68,60.47-63.41ZM275.55,126.77c11.06-6.32,23.92-9.48,38.36-9.48,33.4,0,75.14,16.7,119.82,48.96,4.29,3.16,8.57,6.54,13.09,9.93-30.01,27.75-59.12,60.25-86.65,96.57-46.03,5.87-88.9,14.89-127.49,26.85-.9-5.42-1.58-10.83-2.03-16.25-7.9-78.3,8.57-135.39,44.9-156.6ZM71.35,480.35c0-44.45,46.93-90.48,128.17-123.88,9.25,39.94,23.01,81.68,40.62,123.88-18.05,42.87-31.59,84.39-40.62,123.88-81.23-33.39-128.17-79.43-128.17-123.88ZM275.55,833.93c-38.59-22.11-55.06-85.97-43.1-172.84,38.59,11.96,81.46,20.98,127.49,26.85,27.98,37.01,57.31,69.72,86.87,97.25-69.27,53.48-132.68,70.85-171.26,48.74ZM479.76,757.21c-20.31-18.28-40.62-39.71-60.7-63.86,19.86,1.35,40.16,2.03,60.7,2.03s40.84-.68,60.7-2.03c-20.08,24.14-40.39,45.58-60.7,63.86ZM683.96,833.93c-38.59,22.11-101.99,4.74-171.26-48.74,29.56-27.53,58.89-60.25,86.87-97.25,46.03-5.87,88.68-14.89,127.26-26.85,11.96,86.87-4.51,150.73-42.87,172.84ZM760.01,604.23c-9.02-39.49-22.79-81-40.62-123.88,17.6-42.19,31.36-83.94,40.39-123.88,81.23,33.39,128.16,79.43,128.16,123.88s-46.93,90.48-127.94,123.88Z"/>
</svg>