<?xml version="1.0" encoding="UTF-8"?>
<svg id="Layer_1" data-name="Layer 1" xmlns="http://www.w3.org/2000/svg" viewBox="0 0 960 960">
  <defs>
    <style>
      .cls-1 {
        fill: #cf649a;
      }
    </style>
  </defs>
  <path class="cls-1" d="m814.76,534.71c-32.4.18-60.45,7.96-83.98,19.55-8.69-17.19-17.37-32.21-18.82-43.44-1.63-13.03-3.62-20.99-1.63-36.56,1.99-15.56,11.04-37.64,11.04-39.45-.18-1.63-1.99-9.59-20.63-9.77-18.64-.18-34.75,3.62-36.56,8.51-1.81,4.89-5.43,16.11-7.78,27.69-3.26,17.01-37.28,77.28-56.65,108.95-6.33-12.31-11.76-23.17-12.85-31.85-1.63-13.03-3.62-20.99-1.63-36.56,1.99-15.56,11.04-37.64,11.04-39.45-.18-1.63-1.99-9.59-20.63-9.77-18.64-.18-34.75,3.62-36.56,8.51-1.81,4.89-3.8,16.47-7.78,27.69-3.8,11.22-49.05,111.85-60.81,138.09-5.97,13.39-11.22,24.07-15.02,31.31-3.8,7.24-.18.54-.54,1.27-3.26,6.15-5.07,9.59-5.07,9.59v.18c-2.53,4.52-5.25,8.87-6.52,8.87-.9,0-2.71-12.13.36-28.78,6.7-34.93,22.98-89.41,22.8-91.4,0-.9,3.08-10.5-10.5-15.38-13.21-4.89-17.92,3.26-19,3.26s-1.99,2.9-1.99,2.9c0,0,14.66-61.35-28.05-61.35-26.79,0-63.71,29.14-81.98,55.74-11.58,6.33-36.2,19.73-62.26,34.02-9.95,5.43-20.27,11.22-30.04,16.47l-1.99-2.17c-51.76-55.2-147.5-94.29-143.52-168.49,1.45-26.97,10.86-98.09,183.88-184.24,141.71-70.58,255.18-51.22,274.91-8.14,28.05,61.53-60.63,175.91-207.95,192.38-56.1,6.33-85.6-15.38-93.02-23.53-7.78-8.51-8.87-8.87-11.76-7.24-4.71,2.53-1.81,10.14,0,14.66,4.34,11.4,22.44,31.67,53.21,41.81,26.97,8.87,92.84,13.75,172.48-17.01,89.22-34.57,158.9-130.49,138.45-210.66-20.81-81.62-156.19-108.41-284.14-62.98-76.19,27.15-158.72,69.5-218.08,125.06C24.59,348.84,13.37,406.4,18.08,430.28c16.47,85.24,133.93,140.8,180.98,181.89-2.35,1.27-4.52,2.53-6.52,3.62-23.53,11.58-113.11,58.46-135.56,108.05-25.34,56.1,3.98,96.46,23.53,101.89,60.45,16.83,122.34-13.39,155.83-63.16,33.3-49.77,29.32-114.38,13.94-143.88l-.54-1.09,18.46-10.86c11.94-7.06,23.71-13.57,34.02-19.18-5.79,15.75-9.95,34.39-12.13,61.53-2.53,31.85,10.5,73.12,27.69,89.41,7.6,7.06,16.65,7.24,22.26,7.24,19.91,0,28.96-16.47,38.91-36.2,12.31-24.07,23.17-51.94,23.17-51.94,0,0-13.57,75.47,23.53,75.47,13.57,0,27.15-17.56,33.3-26.6v.18s.36-.54,1.09-1.81c1.45-2.17,2.17-3.44,2.17-3.44v-.36c5.43-9.41,17.56-30.95,35.65-66.6,23.35-45.97,45.79-103.52,45.79-103.52,0,0,2.17,14.12,8.87,37.28,3.98,13.75,12.67,28.78,19.37,43.44-5.43,7.6-8.69,11.94-8.69,11.94l.18.18c-4.34,5.79-9.23,11.94-14.3,18.1-18.46,22.08-40.54,47.24-43.44,54.48-3.44,8.51-2.71,14.84,3.98,19.91,4.89,3.62,13.57,4.34,22.8,3.62,16.65-1.09,28.23-5.25,34.02-7.78,9.05-3.26,19.37-8.14,29.32-15.38,18.1-13.39,29.14-32.4,28.05-57.73-.54-13.94-5.07-27.69-10.68-40.72,1.63-2.35,3.26-4.71,4.89-7.24,28.6-41.81,50.67-87.78,50.67-87.78,0,0,2.17,14.12,8.87,37.28,3.44,11.76,10.32,24.61,16.47,37.28-26.79,21.9-43.62,47.24-49.41,63.89-10.68,30.77-2.35,44.7,13.39,47.96,7.06,1.45,17.19-1.81,24.79-5.07,9.41-3.08,20.81-8.33,31.31-16.11,18.1-13.39,35.47-32.03,34.57-57.19-.54-11.58-3.62-22.98-7.78-33.84,22.8-9.41,52.3-14.84,89.77-10.32,80.54,9.41,96.46,59.72,93.39,80.72-3.08,20.99-19.91,32.58-25.52,36.2-5.61,3.44-7.42,4.71-6.88,7.24.72,3.8,3.26,3.62,8.14,2.9,6.7-1.09,42.35-17.19,43.8-55.92,2.17-49.77-45.06-104.06-128.86-103.52h0Zm-621.13,209.4c-26.6,29.14-64.07,40.18-79.99,30.77-17.19-9.95-10.5-52.85,22.26-83.79,19.91-18.82,45.79-36.2,62.8-46.87,3.8-2.35,9.59-5.79,16.47-9.95,1.09-.72,1.81-1.09,1.81-1.09,1.27-.72,2.71-1.63,4.16-2.53,12.13,44.16.54,82.89-27.51,113.48h0Zm194.56-132.3c-9.23,22.62-28.78,80.72-40.54,77.46-10.13-2.71-16.29-46.69-1.99-90.13,7.24-21.9,22.62-47.96,31.67-58.1,14.66-16.29,30.59-21.72,34.57-15.02,4.71,8.69-17.92,71.67-23.71,85.79Zm160.53,76.74c-3.98,1.99-7.6,3.44-9.23,2.35-1.27-.72,1.63-3.44,1.63-3.44,0,0,20.09-21.54,28.05-31.49,4.52-5.79,9.95-12.49,15.75-20.09v2.17c0,26.06-24.98,43.44-36.2,50.49Zm123.79-28.23c-2.9-2.17-2.53-8.87,7.24-29.86,3.8-8.33,12.49-22.26,27.51-35.47,1.81,5.43,2.9,10.68,2.71,15.56-.18,32.58-23.35,44.7-37.46,49.77Z"/>
</svg>