<svg width="166" height="160" viewBox="0 0 166 160" fill="none" xmlns="http://www.w3.org/2000/svg">
<path fill-rule="evenodd" clip-rule="evenodd" d="M85.7852 0.0360206C101.496 -0.682995 115.271 9.49381 128.538 18.7928C142.692 28.7146 159.881 37.6645 164.714 55.3621C169.527 72.985 159.777 90.8775 152.791 107.595C146.594 122.426 138.989 136.503 126.876 145.912C114.885 155.225 100.348 161.615 85.7852 159.641C71.9985 157.773 63.7442 142.784 51.4371 135.689C35.8671 126.713 13.2706 129.457 4.4181 112.735C-4.44637 95.9896 1.49371 73.5911 9.39468 56.2707C16.6576 40.3489 32.0889 32.492 45.5382 22.5914C58.3669 13.1476 70.3688 0.741563 85.7852 0.0360206Z" fill="#608AF5"/>
<path fill-rule="evenodd" clip-rule="evenodd" d="M50.2246 75.6906C70.6257 66.941 84.2296 61.1727 91.0363 58.3857C110.471 50.4284 114.509 49.0461 117.141 49.0005C117.72 48.9904 119.015 49.1317 119.853 49.8014C120.561 50.3669 120.756 51.1308 120.849 51.667C120.942 52.2032 121.058 53.4246 120.966 54.3789C119.913 65.2719 115.356 91.7062 113.038 103.907C112.057 109.069 110.125 110.8 108.255 110.969C104.191 111.337 101.105 108.325 97.1689 105.786C91.0097 101.811 87.53 99.337 81.5514 95.4587C74.642 90.9766 79.1211 88.5132 83.0587 84.4872C84.0892 83.4336 101.995 67.4011 102.342 65.9467C102.385 65.7648 102.425 65.0868 102.016 64.7288C101.607 64.3707 101.003 64.4932 100.567 64.5905C99.9494 64.7286 90.1098 71.1306 71.0485 83.7966C68.2556 85.6845 65.7258 86.6044 63.4593 86.5562C60.9606 86.503 56.154 85.1654 52.5809 84.0221C48.1983 82.6197 44.7151 81.8783 45.0184 79.4966C45.1764 78.2561 46.9118 76.9874 50.2246 75.6906Z" fill="white"/>
</svg>
