<svg width="819" height="168" viewBox="0 0 819 168" fill="none" xmlns="http://www.w3.org/2000/svg">
<path d="M0 168L27.3 147.05C54.6 126.1 109.2 84.2 163.8 84.2C218.4 84.2 273 126.1 327.6 126.1C382.2 126.1 436.8 84.2 491.4 77.2603C546 69.7969 600.6 98.6031 655.2 91.1396C709.8 84.2 764.4 42.3 791.7 21.35L819 0.400009V168H791.7C764.4 168 709.8 168 655.2 168C600.6 168 546 168 491.4 168C436.8 168 382.2 168 327.6 168C273 168 218.4 168 163.8 168C109.2 168 54.6 168 27.3 168H0Z" fill="#4581F6"/>
</svg>
